<mxfile host="app.diagrams.net" agent="Mozilla/5.0 (Windows NT 10.0; Win64; x64) AppleWebKit/537.36 (KHTML, like Gecko) Chrome/131.0.0.0 Safari/537.36 Edg/131.0.0.0" version="25.0.3" pages="3">
  <diagram id="C5RBs43oDa-KdzZeNtuy" name="Page-1">
    <mxGraphModel dx="2007" dy="1038" grid="1" gridSize="10" guides="1" tooltips="1" connect="1" arrows="1" fold="1" page="1" pageScale="1" pageWidth="827" pageHeight="1169" math="0" shadow="0">
      <root>
        <mxCell id="WIyWlLk6GJQsqaUBKTNV-0" />
        <mxCell id="WIyWlLk6GJQsqaUBKTNV-1" parent="WIyWlLk6GJQsqaUBKTNV-0" />
        <mxCell id="jowW-lcLLdZ2tvXLn4tW-18" value="Mulai" style="rounded=1;whiteSpace=wrap;arcSize=50;strokeWidth=2;" vertex="1" parent="WIyWlLk6GJQsqaUBKTNV-1">
          <mxGeometry x="860" y="1050" width="80" height="45" as="geometry" />
        </mxCell>
        <mxCell id="jowW-lcLLdZ2tvXLn4tW-19" value="Pilihan Pengguna" style="rhombus;strokeWidth=2;whiteSpace=wrap;" vertex="1" parent="WIyWlLk6GJQsqaUBKTNV-1">
          <mxGeometry x="824" y="1198" width="170" height="170" as="geometry" />
        </mxCell>
        <mxCell id="jowW-lcLLdZ2tvXLn4tW-20" value="Cek Username" style="rhombus;strokeWidth=2;whiteSpace=wrap;" vertex="1" parent="WIyWlLk6GJQsqaUBKTNV-1">
          <mxGeometry x="573" y="1442" width="152" height="152" as="geometry" />
        </mxCell>
        <mxCell id="jowW-lcLLdZ2tvXLn4tW-21" value="Tampilkan Error: Username Sudah Ada" style="whiteSpace=wrap;strokeWidth=2;" vertex="1" parent="WIyWlLk6GJQsqaUBKTNV-1">
          <mxGeometry x="387" y="1711" width="256" height="67" as="geometry" />
        </mxCell>
        <mxCell id="jowW-lcLLdZ2tvXLn4tW-22" value="Proses Registrasi" style="whiteSpace=wrap;strokeWidth=2;" vertex="1" parent="WIyWlLk6GJQsqaUBKTNV-1">
          <mxGeometry x="693" y="1720" width="179" height="50" as="geometry" />
        </mxCell>
        <mxCell id="jowW-lcLLdZ2tvXLn4tW-23" value="Tambah Padding Password" style="whiteSpace=wrap;strokeWidth=2;" vertex="1" parent="WIyWlLk6GJQsqaUBKTNV-1">
          <mxGeometry x="659" y="1904" width="247" height="50" as="geometry" />
        </mxCell>
        <mxCell id="jowW-lcLLdZ2tvXLn4tW-24" value="Buat IV" style="whiteSpace=wrap;strokeWidth=2;" vertex="1" parent="WIyWlLk6GJQsqaUBKTNV-1">
          <mxGeometry x="727" y="2022" width="112" height="50" as="geometry" />
        </mxCell>
        <mxCell id="jowW-lcLLdZ2tvXLn4tW-25" value="Enkripsi Password dengan AES" style="whiteSpace=wrap;strokeWidth=2;" vertex="1" parent="WIyWlLk6GJQsqaUBKTNV-1">
          <mxGeometry x="661" y="2181" width="244" height="67" as="geometry" />
        </mxCell>
        <mxCell id="jowW-lcLLdZ2tvXLn4tW-26" value="Simpan ke Database" style="shape=cylinder3;boundedLbl=1;backgroundOutline=1;size=10;strokeWidth=2;whiteSpace=wrap;" vertex="1" parent="WIyWlLk6GJQsqaUBKTNV-1">
          <mxGeometry x="703" y="2373" width="160" height="77" as="geometry" />
        </mxCell>
        <mxCell id="jowW-lcLLdZ2tvXLn4tW-27" value="Registrasi Berhasil" style="whiteSpace=wrap;strokeWidth=2;" vertex="1" parent="WIyWlLk6GJQsqaUBKTNV-1">
          <mxGeometry x="687" y="2500" width="191" height="50" as="geometry" />
        </mxCell>
        <mxCell id="jowW-lcLLdZ2tvXLn4tW-28" value="Ambil Data Pengguna dari DB" style="whiteSpace=wrap;strokeWidth=2;" vertex="1" parent="WIyWlLk6GJQsqaUBKTNV-1">
          <mxGeometry x="1050" y="1484" width="245" height="67" as="geometry" />
        </mxCell>
        <mxCell id="jowW-lcLLdZ2tvXLn4tW-29" value="Pengguna Ada?" style="rhombus;strokeWidth=2;whiteSpace=wrap;" vertex="1" parent="WIyWlLk6GJQsqaUBKTNV-1">
          <mxGeometry x="1096" y="1667" width="154" height="154" as="geometry" />
        </mxCell>
        <mxCell id="jowW-lcLLdZ2tvXLn4tW-30" value="Tampilkan Error: Kredensial Tidak Valid" style="whiteSpace=wrap;strokeWidth=2;" vertex="1" parent="WIyWlLk6GJQsqaUBKTNV-1">
          <mxGeometry x="913" y="2378" width="260" height="67" as="geometry" />
        </mxCell>
        <mxCell id="jowW-lcLLdZ2tvXLn4tW-31" value="Ambil IV dari Data Tersimpan" style="whiteSpace=wrap;strokeWidth=2;" vertex="1" parent="WIyWlLk6GJQsqaUBKTNV-1">
          <mxGeometry x="1181" y="1895" width="192" height="67" as="geometry" />
        </mxCell>
        <mxCell id="jowW-lcLLdZ2tvXLn4tW-32" value="Dekripsi Password Tersimpan" style="whiteSpace=wrap;strokeWidth=2;" vertex="1" parent="WIyWlLk6GJQsqaUBKTNV-1">
          <mxGeometry x="1183" y="2013" width="189" height="67" as="geometry" />
        </mxCell>
        <mxCell id="jowW-lcLLdZ2tvXLn4tW-33" value="Password Cocok?" style="rhombus;strokeWidth=2;whiteSpace=wrap;" vertex="1" parent="WIyWlLk6GJQsqaUBKTNV-1">
          <mxGeometry x="1192" y="2130" width="170" height="170" as="geometry" />
        </mxCell>
        <mxCell id="jowW-lcLLdZ2tvXLn4tW-34" value="Login Berhasil" style="whiteSpace=wrap;strokeWidth=2;" vertex="1" parent="WIyWlLk6GJQsqaUBKTNV-1">
          <mxGeometry x="1223" y="2387" width="160" height="50" as="geometry" />
        </mxCell>
        <mxCell id="jowW-lcLLdZ2tvXLn4tW-36" value="" style="curved=1;startArrow=none;endArrow=block;exitX=0.5;exitY=0.99;entryX=0.5;entryY=0;rounded=0;" edge="1" parent="WIyWlLk6GJQsqaUBKTNV-1" source="jowW-lcLLdZ2tvXLn4tW-18" target="jowW-lcLLdZ2tvXLn4tW-19">
          <mxGeometry relative="1" as="geometry">
            <Array as="points" />
          </mxGeometry>
        </mxCell>
        <mxCell id="jowW-lcLLdZ2tvXLn4tW-37" value="Registrasi" style="curved=1;startArrow=none;endArrow=block;exitX=0;exitY=0.73;entryX=0.5;entryY=0;rounded=0;" edge="1" parent="WIyWlLk6GJQsqaUBKTNV-1" source="jowW-lcLLdZ2tvXLn4tW-19" target="jowW-lcLLdZ2tvXLn4tW-20">
          <mxGeometry relative="1" as="geometry">
            <Array as="points">
              <mxPoint x="649" y="1405" />
            </Array>
          </mxGeometry>
        </mxCell>
        <mxCell id="jowW-lcLLdZ2tvXLn4tW-38" value="Sudah Ada" style="curved=1;startArrow=none;endArrow=block;exitX=0;exitY=0.92;entryX=0.5;entryY=0;rounded=0;" edge="1" parent="WIyWlLk6GJQsqaUBKTNV-1" source="jowW-lcLLdZ2tvXLn4tW-20" target="jowW-lcLLdZ2tvXLn4tW-21">
          <mxGeometry relative="1" as="geometry">
            <Array as="points">
              <mxPoint x="515" y="1631" />
            </Array>
          </mxGeometry>
        </mxCell>
        <mxCell id="jowW-lcLLdZ2tvXLn4tW-39" value="Baru" style="curved=1;startArrow=none;endArrow=block;exitX=1;exitY=0.92;entryX=0.5;entryY=0;rounded=0;" edge="1" parent="WIyWlLk6GJQsqaUBKTNV-1" source="jowW-lcLLdZ2tvXLn4tW-20" target="jowW-lcLLdZ2tvXLn4tW-22">
          <mxGeometry relative="1" as="geometry">
            <Array as="points">
              <mxPoint x="783" y="1631" />
            </Array>
          </mxGeometry>
        </mxCell>
        <mxCell id="jowW-lcLLdZ2tvXLn4tW-40" value="" style="curved=1;startArrow=none;endArrow=block;exitX=0.5;exitY=0.99;entryX=0.5;entryY=0.01;rounded=0;" edge="1" parent="WIyWlLk6GJQsqaUBKTNV-1" source="jowW-lcLLdZ2tvXLn4tW-22" target="jowW-lcLLdZ2tvXLn4tW-23">
          <mxGeometry relative="1" as="geometry">
            <Array as="points" />
          </mxGeometry>
        </mxCell>
        <mxCell id="jowW-lcLLdZ2tvXLn4tW-41" value="" style="curved=1;startArrow=none;endArrow=block;exitX=0.5;exitY=1;entryX=0.5;entryY=-0.01;rounded=0;" edge="1" parent="WIyWlLk6GJQsqaUBKTNV-1" source="jowW-lcLLdZ2tvXLn4tW-23" target="jowW-lcLLdZ2tvXLn4tW-24">
          <mxGeometry relative="1" as="geometry">
            <Array as="points" />
          </mxGeometry>
        </mxCell>
        <mxCell id="jowW-lcLLdZ2tvXLn4tW-42" value="" style="curved=1;startArrow=none;endArrow=block;exitX=0.5;exitY=0.98;entryX=0.5;entryY=0;rounded=0;" edge="1" parent="WIyWlLk6GJQsqaUBKTNV-1" source="jowW-lcLLdZ2tvXLn4tW-24" target="jowW-lcLLdZ2tvXLn4tW-25">
          <mxGeometry relative="1" as="geometry">
            <Array as="points" />
          </mxGeometry>
        </mxCell>
        <mxCell id="jowW-lcLLdZ2tvXLn4tW-43" value="" style="curved=1;startArrow=none;endArrow=block;exitX=0.5;exitY=1.01;entryX=0.5;entryY=0;rounded=0;" edge="1" parent="WIyWlLk6GJQsqaUBKTNV-1" source="jowW-lcLLdZ2tvXLn4tW-25" target="jowW-lcLLdZ2tvXLn4tW-26">
          <mxGeometry relative="1" as="geometry">
            <Array as="points" />
          </mxGeometry>
        </mxCell>
        <mxCell id="jowW-lcLLdZ2tvXLn4tW-44" value="" style="curved=1;startArrow=none;endArrow=block;exitX=0.5;exitY=1;entryX=0.5;entryY=0;rounded=0;" edge="1" parent="WIyWlLk6GJQsqaUBKTNV-1" source="jowW-lcLLdZ2tvXLn4tW-26" target="jowW-lcLLdZ2tvXLn4tW-27">
          <mxGeometry relative="1" as="geometry">
            <Array as="points" />
          </mxGeometry>
        </mxCell>
        <mxCell id="jowW-lcLLdZ2tvXLn4tW-45" value="Login" style="curved=1;startArrow=none;endArrow=block;exitX=1;exitY=0.73;entryX=0.5;entryY=0;rounded=0;" edge="1" parent="WIyWlLk6GJQsqaUBKTNV-1" source="jowW-lcLLdZ2tvXLn4tW-19" target="jowW-lcLLdZ2tvXLn4tW-28">
          <mxGeometry relative="1" as="geometry">
            <Array as="points">
              <mxPoint x="1173" y="1405" />
            </Array>
          </mxGeometry>
        </mxCell>
        <mxCell id="jowW-lcLLdZ2tvXLn4tW-46" value="" style="curved=1;startArrow=none;endArrow=block;exitX=0.5;exitY=1.01;entryX=0.5;entryY=0;rounded=0;" edge="1" parent="WIyWlLk6GJQsqaUBKTNV-1" source="jowW-lcLLdZ2tvXLn4tW-28" target="jowW-lcLLdZ2tvXLn4tW-29">
          <mxGeometry relative="1" as="geometry">
            <Array as="points" />
          </mxGeometry>
        </mxCell>
        <mxCell id="jowW-lcLLdZ2tvXLn4tW-47" value="Tidak" style="curved=1;startArrow=none;endArrow=block;exitX=0;exitY=0.82;entryX=0.41;entryY=0;rounded=0;" edge="1" parent="WIyWlLk6GJQsqaUBKTNV-1" source="jowW-lcLLdZ2tvXLn4tW-29" target="jowW-lcLLdZ2tvXLn4tW-30">
          <mxGeometry relative="1" as="geometry">
            <Array as="points">
              <mxPoint x="992" y="1859" />
              <mxPoint x="992" y="2336" />
            </Array>
          </mxGeometry>
        </mxCell>
        <mxCell id="jowW-lcLLdZ2tvXLn4tW-48" value="Ya" style="curved=1;startArrow=none;endArrow=block;exitX=0.96;exitY=1.01;entryX=0.5;entryY=0.01;rounded=0;" edge="1" parent="WIyWlLk6GJQsqaUBKTNV-1" source="jowW-lcLLdZ2tvXLn4tW-29" target="jowW-lcLLdZ2tvXLn4tW-31">
          <mxGeometry relative="1" as="geometry">
            <Array as="points">
              <mxPoint x="1277" y="1859" />
            </Array>
          </mxGeometry>
        </mxCell>
        <mxCell id="jowW-lcLLdZ2tvXLn4tW-49" value="" style="curved=1;startArrow=none;endArrow=block;exitX=0.5;exitY=1.01;entryX=0.5;entryY=0;rounded=0;" edge="1" parent="WIyWlLk6GJQsqaUBKTNV-1" source="jowW-lcLLdZ2tvXLn4tW-31" target="jowW-lcLLdZ2tvXLn4tW-32">
          <mxGeometry relative="1" as="geometry">
            <Array as="points" />
          </mxGeometry>
        </mxCell>
        <mxCell id="jowW-lcLLdZ2tvXLn4tW-50" value="" style="curved=1;startArrow=none;endArrow=block;exitX=0.5;exitY=1;entryX=0.5;entryY=0;rounded=0;" edge="1" parent="WIyWlLk6GJQsqaUBKTNV-1" source="jowW-lcLLdZ2tvXLn4tW-32" target="jowW-lcLLdZ2tvXLn4tW-33">
          <mxGeometry relative="1" as="geometry">
            <Array as="points" />
          </mxGeometry>
        </mxCell>
        <mxCell id="jowW-lcLLdZ2tvXLn4tW-51" value="Tidak" style="curved=1;startArrow=none;endArrow=block;exitX=0;exitY=0.97;entryX=0.68;entryY=0;rounded=0;" edge="1" parent="WIyWlLk6GJQsqaUBKTNV-1" source="jowW-lcLLdZ2tvXLn4tW-33" target="jowW-lcLLdZ2tvXLn4tW-30">
          <mxGeometry relative="1" as="geometry">
            <Array as="points">
              <mxPoint x="1147" y="2336" />
            </Array>
          </mxGeometry>
        </mxCell>
        <mxCell id="jowW-lcLLdZ2tvXLn4tW-52" value="Ya" style="curved=1;startArrow=none;endArrow=block;exitX=0.61;exitY=1;entryX=0.5;entryY=0;rounded=0;" edge="1" parent="WIyWlLk6GJQsqaUBKTNV-1" source="jowW-lcLLdZ2tvXLn4tW-33" target="jowW-lcLLdZ2tvXLn4tW-34">
          <mxGeometry relative="1" as="geometry">
            <Array as="points">
              <mxPoint x="1303" y="2336" />
            </Array>
          </mxGeometry>
        </mxCell>
      </root>
    </mxGraphModel>
  </diagram>
  <diagram id="_mfrz2-bFn-llJ0Nq9ru" name="Page-2">
    <mxGraphModel dx="1806" dy="934" grid="1" gridSize="10" guides="1" tooltips="1" connect="1" arrows="1" fold="1" page="1" pageScale="1" pageWidth="850" pageHeight="1100" math="0" shadow="0">
      <root>
        <mxCell id="0" />
        <mxCell id="1" parent="0" />
        <mxCell id="X3nF0ukYJmRPxW0zFXXb-1" value="Proses_Dekripsi_AES" style="whiteSpace=wrap;strokeWidth=2;verticalAlign=top;" vertex="1" parent="1">
          <mxGeometry x="160" y="570" width="289" height="499" as="geometry" />
        </mxCell>
        <mxCell id="X3nF0ukYJmRPxW0zFXXb-2" value="Dekode Base64" style="whiteSpace=wrap;strokeWidth=2;" vertex="1" parent="X3nF0ukYJmRPxW0zFXXb-1">
          <mxGeometry x="68" y="46" width="168" height="50" as="geometry" />
        </mxCell>
        <mxCell id="X3nF0ukYJmRPxW0zFXXb-3" value="Pisahkan IV" style="whiteSpace=wrap;strokeWidth=2;" vertex="1" parent="X3nF0ukYJmRPxW0zFXXb-1">
          <mxGeometry x="82" y="170" width="141" height="50" as="geometry" />
        </mxCell>
        <mxCell id="X3nF0ukYJmRPxW0zFXXb-4" value="Terapkan Dekripsi AES" style="whiteSpace=wrap;strokeWidth=2;" vertex="1" parent="X3nF0ukYJmRPxW0zFXXb-1">
          <mxGeometry x="43" y="295" width="219" height="50" as="geometry" />
        </mxCell>
        <mxCell id="X3nF0ukYJmRPxW0zFXXb-5" value="Hapus Padding" style="whiteSpace=wrap;strokeWidth=2;" vertex="1" parent="X3nF0ukYJmRPxW0zFXXb-1">
          <mxGeometry x="71" y="419" width="163" height="50" as="geometry" />
        </mxCell>
        <mxCell id="X3nF0ukYJmRPxW0zFXXb-6" value="" style="curved=1;startArrow=none;endArrow=block;exitX=0.5;exitY=0.98;entryX=0.5;entryY=0;rounded=0;" edge="1" parent="X3nF0ukYJmRPxW0zFXXb-1" source="X3nF0ukYJmRPxW0zFXXb-2" target="X3nF0ukYJmRPxW0zFXXb-3">
          <mxGeometry relative="1" as="geometry">
            <Array as="points" />
          </mxGeometry>
        </mxCell>
        <mxCell id="X3nF0ukYJmRPxW0zFXXb-7" value="" style="curved=1;startArrow=none;endArrow=block;exitX=0.5;exitY=1;entryX=0.5;entryY=0;rounded=0;" edge="1" parent="X3nF0ukYJmRPxW0zFXXb-1" source="X3nF0ukYJmRPxW0zFXXb-3" target="X3nF0ukYJmRPxW0zFXXb-4">
          <mxGeometry relative="1" as="geometry">
            <Array as="points" />
          </mxGeometry>
        </mxCell>
        <mxCell id="X3nF0ukYJmRPxW0zFXXb-8" value="" style="curved=1;startArrow=none;endArrow=block;exitX=0.5;exitY=0.99;entryX=0.5;entryY=0.01;rounded=0;" edge="1" parent="X3nF0ukYJmRPxW0zFXXb-1" source="X3nF0ukYJmRPxW0zFXXb-4" target="X3nF0ukYJmRPxW0zFXXb-5">
          <mxGeometry relative="1" as="geometry">
            <Array as="points" />
          </mxGeometry>
        </mxCell>
        <mxCell id="X3nF0ukYJmRPxW0zFXXb-9" value="Proses_Enkripsi_AES" style="whiteSpace=wrap;strokeWidth=2;verticalAlign=top;" vertex="1" parent="1">
          <mxGeometry x="499" y="490" width="329" height="658" as="geometry" />
        </mxCell>
        <mxCell id="X3nF0ukYJmRPxW0zFXXb-10" value="Tambah Padding Data ke 16 byte" style="whiteSpace=wrap;strokeWidth=2;" vertex="1" parent="X3nF0ukYJmRPxW0zFXXb-9">
          <mxGeometry x="43" y="46" width="259" height="67" as="geometry" />
        </mxCell>
        <mxCell id="X3nF0ukYJmRPxW0zFXXb-11" value="Buat IV Acak" style="whiteSpace=wrap;strokeWidth=2;" vertex="1" parent="X3nF0ukYJmRPxW0zFXXb-9">
          <mxGeometry x="98" y="188" width="150" height="50" as="geometry" />
        </mxCell>
        <mxCell id="X3nF0ukYJmRPxW0zFXXb-12" value="Terapkan Mode AES CBC" style="whiteSpace=wrap;strokeWidth=2;" vertex="1" parent="X3nF0ukYJmRPxW0zFXXb-9">
          <mxGeometry x="57" y="312" width="232" height="50" as="geometry" />
        </mxCell>
        <mxCell id="X3nF0ukYJmRPxW0zFXXb-13" value="Gabungkan IV + Data Terenkripsi" style="whiteSpace=wrap;strokeWidth=2;" vertex="1" parent="X3nF0ukYJmRPxW0zFXXb-9">
          <mxGeometry x="67" y="437" width="211" height="67" as="geometry" />
        </mxCell>
        <mxCell id="X3nF0ukYJmRPxW0zFXXb-14" value="Enkode Base64" style="whiteSpace=wrap;strokeWidth=2;" vertex="1" parent="X3nF0ukYJmRPxW0zFXXb-9">
          <mxGeometry x="89" y="579" width="167" height="50" as="geometry" />
        </mxCell>
        <mxCell id="X3nF0ukYJmRPxW0zFXXb-15" value="" style="curved=1;startArrow=none;endArrow=block;exitX=0.5;exitY=1;entryX=0.5;entryY=-0.01;rounded=0;" edge="1" parent="X3nF0ukYJmRPxW0zFXXb-9" source="X3nF0ukYJmRPxW0zFXXb-10" target="X3nF0ukYJmRPxW0zFXXb-11">
          <mxGeometry relative="1" as="geometry">
            <Array as="points" />
          </mxGeometry>
        </mxCell>
        <mxCell id="X3nF0ukYJmRPxW0zFXXb-16" value="" style="curved=1;startArrow=none;endArrow=block;exitX=0.5;exitY=0.99;entryX=0.5;entryY=0.01;rounded=0;" edge="1" parent="X3nF0ukYJmRPxW0zFXXb-9" source="X3nF0ukYJmRPxW0zFXXb-11" target="X3nF0ukYJmRPxW0zFXXb-12">
          <mxGeometry relative="1" as="geometry">
            <Array as="points" />
          </mxGeometry>
        </mxCell>
        <mxCell id="X3nF0ukYJmRPxW0zFXXb-17" value="" style="curved=1;startArrow=none;endArrow=block;exitX=0.5;exitY=1;entryX=0.5;entryY=0;rounded=0;" edge="1" parent="X3nF0ukYJmRPxW0zFXXb-9" source="X3nF0ukYJmRPxW0zFXXb-12" target="X3nF0ukYJmRPxW0zFXXb-13">
          <mxGeometry relative="1" as="geometry">
            <Array as="points" />
          </mxGeometry>
        </mxCell>
        <mxCell id="X3nF0ukYJmRPxW0zFXXb-18" value="" style="curved=1;startArrow=none;endArrow=block;exitX=0.5;exitY=1;entryX=0.5;entryY=0;rounded=0;" edge="1" parent="X3nF0ukYJmRPxW0zFXXb-9" source="X3nF0ukYJmRPxW0zFXXb-13" target="X3nF0ukYJmRPxW0zFXXb-14">
          <mxGeometry relative="1" as="geometry">
            <Array as="points" />
          </mxGeometry>
        </mxCell>
      </root>
    </mxGraphModel>
  </diagram>
  <diagram id="F6cQHTX6EUPzAy_mORqO" name="Page-3">
    <mxGraphModel dx="2857" dy="1038" grid="1" gridSize="10" guides="1" tooltips="1" connect="1" arrows="1" fold="1" page="1" pageScale="1" pageWidth="850" pageHeight="1100" math="0" shadow="0">
      <root>
        <mxCell id="0" />
        <mxCell id="1" parent="0" />
        <mxCell id="R3d1R8utCInmOH0pcBiY-33" value="START" style="whiteSpace=wrap;strokeWidth=2;" vertex="1" parent="1">
          <mxGeometry x="198" y="260" width="104" height="50" as="geometry" />
        </mxCell>
        <mxCell id="R3d1R8utCInmOH0pcBiY-34" value="Inisialisasi DHT Sensor dan Koneksi Wi-Fi" style="whiteSpace=wrap;strokeWidth=2;" vertex="1" parent="1">
          <mxGeometry x="124" y="360" width="251" height="67" as="geometry" />
        </mxCell>
        <mxCell id="R3d1R8utCInmOH0pcBiY-74" value="" style="edgeStyle=orthogonalEdgeStyle;rounded=0;orthogonalLoop=1;jettySize=auto;html=1;" edge="1" parent="1" source="R3d1R8utCInmOH0pcBiY-35" target="R3d1R8utCInmOH0pcBiY-37">
          <mxGeometry relative="1" as="geometry" />
        </mxCell>
        <mxCell id="R3d1R8utCInmOH0pcBiY-76" value="" style="edgeStyle=orthogonalEdgeStyle;rounded=0;orthogonalLoop=1;jettySize=auto;html=1;entryX=0;entryY=0.5;entryDx=0;entryDy=0;" edge="1" parent="1" source="R3d1R8utCInmOH0pcBiY-35" target="R3d1R8utCInmOH0pcBiY-34">
          <mxGeometry relative="1" as="geometry">
            <mxPoint x="90" y="575" as="targetPoint" />
            <Array as="points">
              <mxPoint x="104" y="564" />
              <mxPoint x="104" y="394" />
            </Array>
          </mxGeometry>
        </mxCell>
        <mxCell id="R3d1R8utCInmOH0pcBiY-35" value="Wi-Fi Terkoneksi?" style="rhombus;strokeWidth=2;whiteSpace=wrap;" vertex="1" parent="1">
          <mxGeometry x="163" y="477" width="173" height="173" as="geometry" />
        </mxCell>
        <mxCell id="R3d1R8utCInmOH0pcBiY-79" value="" style="edgeStyle=orthogonalEdgeStyle;rounded=0;orthogonalLoop=1;jettySize=auto;html=1;" edge="1" parent="1" source="R3d1R8utCInmOH0pcBiY-37" target="R3d1R8utCInmOH0pcBiY-38">
          <mxGeometry relative="1" as="geometry" />
        </mxCell>
        <mxCell id="R3d1R8utCInmOH0pcBiY-37" value="Membaca Data Sensor" style="whiteSpace=wrap;strokeWidth=2;" vertex="1" parent="1">
          <mxGeometry x="270" y="724" width="220" height="50" as="geometry" />
        </mxCell>
        <mxCell id="R3d1R8utCInmOH0pcBiY-70" value="" style="edgeStyle=orthogonalEdgeStyle;rounded=0;orthogonalLoop=1;jettySize=auto;html=1;entryX=0;entryY=0.5;entryDx=0;entryDy=0;" edge="1" parent="1" source="R3d1R8utCInmOH0pcBiY-38" target="R3d1R8utCInmOH0pcBiY-37">
          <mxGeometry relative="1" as="geometry">
            <mxPoint x="140.57142857142867" y="1050" as="targetPoint" />
            <Array as="points">
              <mxPoint x="90" y="887" />
              <mxPoint x="90" y="740" />
              <mxPoint x="270" y="740" />
            </Array>
          </mxGeometry>
        </mxCell>
        <mxCell id="R3d1R8utCInmOH0pcBiY-71" value="tidak" style="edgeLabel;html=1;align=center;verticalAlign=middle;resizable=0;points=[];" vertex="1" connectable="0" parent="R3d1R8utCInmOH0pcBiY-70">
          <mxGeometry x="-0.2302" y="-5" relative="1" as="geometry">
            <mxPoint x="15" y="-36" as="offset" />
          </mxGeometry>
        </mxCell>
        <mxCell id="R3d1R8utCInmOH0pcBiY-72" value="" style="edgeStyle=orthogonalEdgeStyle;rounded=0;orthogonalLoop=1;jettySize=auto;html=1;" edge="1" parent="1" source="R3d1R8utCInmOH0pcBiY-38" target="R3d1R8utCInmOH0pcBiY-40">
          <mxGeometry relative="1" as="geometry" />
        </mxCell>
        <mxCell id="R3d1R8utCInmOH0pcBiY-38" value="Data Valid?" style="rhombus;strokeWidth=2;whiteSpace=wrap;" vertex="1" parent="1">
          <mxGeometry x="233" y="823" width="129" height="129" as="geometry" />
        </mxCell>
        <mxCell id="R3d1R8utCInmOH0pcBiY-40" value="Data Suhu, Kelembapan Udara, dan Tanah Dibaca" style="whiteSpace=wrap;strokeWidth=2;" vertex="1" parent="1">
          <mxGeometry x="425" y="960" width="241" height="67" as="geometry" />
        </mxCell>
        <mxCell id="R3d1R8utCInmOH0pcBiY-82" value="" style="edgeStyle=orthogonalEdgeStyle;rounded=0;orthogonalLoop=1;jettySize=auto;html=1;" edge="1" parent="1" source="R3d1R8utCInmOH0pcBiY-41" target="R3d1R8utCInmOH0pcBiY-42">
          <mxGeometry relative="1" as="geometry" />
        </mxCell>
        <mxCell id="R3d1R8utCInmOH0pcBiY-83" value="" style="edgeStyle=orthogonalEdgeStyle;rounded=0;orthogonalLoop=1;jettySize=auto;html=1;" edge="1" parent="1" source="R3d1R8utCInmOH0pcBiY-41" target="R3d1R8utCInmOH0pcBiY-43">
          <mxGeometry relative="1" as="geometry" />
        </mxCell>
        <mxCell id="R3d1R8utCInmOH0pcBiY-41" value="Kelembapan Tanah &lt; 30 " style="rhombus;strokeWidth=2;whiteSpace=wrap;" vertex="1" parent="1">
          <mxGeometry x="270" y="1143" width="246" height="246" as="geometry" />
        </mxCell>
        <mxCell id="R3d1R8utCInmOH0pcBiY-42" value="RED LED Menyala" style="whiteSpace=wrap;strokeWidth=2;" vertex="1" parent="1">
          <mxGeometry y="1250" width="184" height="50" as="geometry" />
        </mxCell>
        <mxCell id="R3d1R8utCInmOH0pcBiY-43" value="Kelembapan Tanah  &lt;= 70" style="rhombus;strokeWidth=2;whiteSpace=wrap;" vertex="1" parent="1">
          <mxGeometry x="270" y="1460" width="244" height="244" as="geometry" />
        </mxCell>
        <mxCell id="R3d1R8utCInmOH0pcBiY-89" value="" style="edgeStyle=orthogonalEdgeStyle;rounded=0;orthogonalLoop=1;jettySize=auto;html=1;" edge="1" parent="1" source="R3d1R8utCInmOH0pcBiY-44" target="R3d1R8utCInmOH0pcBiY-87">
          <mxGeometry relative="1" as="geometry">
            <Array as="points">
              <mxPoint x="88" y="2110" />
            </Array>
          </mxGeometry>
        </mxCell>
        <mxCell id="R3d1R8utCInmOH0pcBiY-44" value="YELLOW LED Menyala" style="whiteSpace=wrap;strokeWidth=2;" vertex="1" parent="1">
          <mxGeometry x="-20" y="1770" width="215" height="50" as="geometry" />
        </mxCell>
        <mxCell id="R3d1R8utCInmOH0pcBiY-65" value="" style="edgeStyle=orthogonalEdgeStyle;rounded=0;orthogonalLoop=1;jettySize=auto;html=1;" edge="1" parent="1" source="R3d1R8utCInmOH0pcBiY-45" target="R3d1R8utCInmOH0pcBiY-46">
          <mxGeometry relative="1" as="geometry" />
        </mxCell>
        <mxCell id="R3d1R8utCInmOH0pcBiY-45" value="GREEN LED Menyala" style="whiteSpace=wrap;strokeWidth=2;" vertex="1" parent="1">
          <mxGeometry x="594" y="1780" width="204" height="50" as="geometry" />
        </mxCell>
        <mxCell id="R3d1R8utCInmOH0pcBiY-88" value="" style="edgeStyle=orthogonalEdgeStyle;rounded=0;orthogonalLoop=1;jettySize=auto;html=1;" edge="1" parent="1" source="R3d1R8utCInmOH0pcBiY-46" target="R3d1R8utCInmOH0pcBiY-87">
          <mxGeometry relative="1" as="geometry" />
        </mxCell>
        <mxCell id="R3d1R8utCInmOH0pcBiY-46" value="Menampilkan Data di Serial Monitor" style="whiteSpace=wrap;strokeWidth=2;" vertex="1" parent="1">
          <mxGeometry x="247" y="1850" width="258" height="67" as="geometry" />
        </mxCell>
        <mxCell id="R3d1R8utCInmOH0pcBiY-48" value="" style="curved=1;startArrow=none;endArrow=block;exitX=0.5;exitY=0.99;entryX=0.5;entryY=-0.01;rounded=0;" edge="1" parent="1" source="R3d1R8utCInmOH0pcBiY-33" target="R3d1R8utCInmOH0pcBiY-34">
          <mxGeometry relative="1" as="geometry">
            <Array as="points" />
          </mxGeometry>
        </mxCell>
        <mxCell id="R3d1R8utCInmOH0pcBiY-49" value="" style="curved=1;startArrow=none;endArrow=block;exitX=0.5;exitY=1;entryX=0.5;entryY=0;rounded=0;" edge="1" parent="1" source="R3d1R8utCInmOH0pcBiY-34" target="R3d1R8utCInmOH0pcBiY-35">
          <mxGeometry relative="1" as="geometry">
            <Array as="points" />
          </mxGeometry>
        </mxCell>
        <mxCell id="R3d1R8utCInmOH0pcBiY-55" value="" style="curved=1;startArrow=none;endArrow=block;exitX=0.5;exitY=1;entryX=0.5;entryY=0;rounded=0;" edge="1" parent="1" source="R3d1R8utCInmOH0pcBiY-40" target="R3d1R8utCInmOH0pcBiY-41">
          <mxGeometry relative="1" as="geometry">
            <Array as="points" />
          </mxGeometry>
        </mxCell>
        <mxCell id="R3d1R8utCInmOH0pcBiY-58" value="Ya" style="curved=1;startArrow=none;endArrow=block;exitX=0.09;exitY=1;entryX=0.5;entryY=0;rounded=0;entryDx=0;entryDy=0;" edge="1" parent="1" source="R3d1R8utCInmOH0pcBiY-43" target="R3d1R8utCInmOH0pcBiY-44">
          <mxGeometry relative="1" as="geometry">
            <Array as="points" />
          </mxGeometry>
        </mxCell>
        <mxCell id="R3d1R8utCInmOH0pcBiY-59" value="Tidak" style="curved=1;startArrow=none;endArrow=block;exitX=0.91;exitY=1;entryX=0.5;entryY=0.01;rounded=0;" edge="1" parent="1" source="R3d1R8utCInmOH0pcBiY-43" target="R3d1R8utCInmOH0pcBiY-45">
          <mxGeometry relative="1" as="geometry">
            <Array as="points" />
          </mxGeometry>
        </mxCell>
        <mxCell id="R3d1R8utCInmOH0pcBiY-73" value="Ya" style="text;html=1;align=center;verticalAlign=middle;resizable=0;points=[];autosize=1;strokeColor=none;fillColor=none;" vertex="1" parent="1">
          <mxGeometry x="449" y="868" width="40" height="30" as="geometry" />
        </mxCell>
        <mxCell id="R3d1R8utCInmOH0pcBiY-75" value="ya" style="text;html=1;align=center;verticalAlign=middle;resizable=0;points=[];autosize=1;strokeColor=none;fillColor=none;" vertex="1" parent="1">
          <mxGeometry x="299" y="658" width="40" height="30" as="geometry" />
        </mxCell>
        <mxCell id="R3d1R8utCInmOH0pcBiY-77" value="tidak" style="text;html=1;align=center;verticalAlign=middle;resizable=0;points=[];autosize=1;strokeColor=none;fillColor=none;" vertex="1" parent="1">
          <mxGeometry x="50" y="460" width="50" height="30" as="geometry" />
        </mxCell>
        <mxCell id="R3d1R8utCInmOH0pcBiY-84" value="ya" style="text;html=1;align=center;verticalAlign=middle;resizable=0;points=[];autosize=1;strokeColor=none;fillColor=none;" vertex="1" parent="1">
          <mxGeometry x="219" y="1238" width="40" height="30" as="geometry" />
        </mxCell>
        <mxCell id="R3d1R8utCInmOH0pcBiY-85" value="tidak" style="text;html=1;align=center;verticalAlign=middle;resizable=0;points=[];autosize=1;strokeColor=none;fillColor=none;" vertex="1" parent="1">
          <mxGeometry x="344" y="1408" width="50" height="30" as="geometry" />
        </mxCell>
        <mxCell id="R3d1R8utCInmOH0pcBiY-87" value="FINISH" style="ellipse;whiteSpace=wrap;html=1;" vertex="1" parent="1">
          <mxGeometry x="320" y="2070" width="120" height="80" as="geometry" />
        </mxCell>
      </root>
    </mxGraphModel>
  </diagram>
</mxfile>
